<svg xmlns="http://www.w3.org/2000/svg" width="792" height="185"><clipPath id="clip"><rect rx="3" width="100%" height="100%" fill="#000"/></clipPath><linearGradient id="grad" x2="0" y2="100%"><stop offset="0" stop-color="#bbb" stop-opacity=".1"/><stop offset="1" stop-opacity=".1"/></linearGradient><g clip-path="url(#clip)"><rect width="100%" height="100%" fill="#555"/><g fill="#fff" text-anchor="middle" font-family="DejaVu Sans,Verdana,Geneva,sans-serif" font-size="15" font-weight="bold"><text x="396.0" y="18" fill="#010101" fill-opacity=".3">Packaging status</text><text x="396.0" y="17">Packaging status</text></g><rect x="141" y="25" width="60" height="20" fill="#e05d44"/><rect x="333" y="25" width="60" height="20" fill="#e05d44"/><rect x="536" y="25" width="60" height="20" fill="#e05d44"/><rect x="731" y="25" width="61" height="20" fill="#e05d44"/><rect y="25" width="100%" height="20" fill="url(#grad)"/><g fill="#fff" font-family="DejaVu Sans,Verdana,Geneva,sans-serif" font-size="11"><text x="136" y="40" fill="#010101" fill-opacity=".3" text-anchor="end">Alpine Linux 3.11</text><text x="136" y="39" text-anchor="end">Alpine Linux 3.11</text><text x="171.0" y="40" fill="#010101" fill-opacity=".3" text-anchor="middle">0.4.1</text><text x="171.0" y="39" text-anchor="middle">0.4.1</text><text x="328" y="40" fill="#010101" fill-opacity=".3" text-anchor="end">Devuan Unstable</text><text x="328" y="39" text-anchor="end">Devuan Unstable</text><text x="363.0" y="40" fill="#010101" fill-opacity=".3" text-anchor="middle">0.7.0</text><text x="363.0" y="39" text-anchor="middle">0.7.0</text><text x="531" y="40" fill="#010101" fill-opacity=".3" text-anchor="end">KDE neon Dev Unstable</text><text x="531" y="39" text-anchor="end">KDE neon Dev Unstable</text><text x="566.0" y="40" fill="#010101" fill-opacity=".3" text-anchor="middle">0.5.0</text><text x="566.0" y="39" text-anchor="middle">0.5.0</text><text x="726" y="40" fill="#010101" fill-opacity=".3" text-anchor="end">OpenMandriva Cooker</text><text x="726" y="39" text-anchor="end">OpenMandriva Cooker</text><text x="761.5" y="40" fill="#010101" fill-opacity=".3" text-anchor="middle">0.7.0</text><text x="761.5" y="39" text-anchor="middle">0.7.0</text></g><rect x="141" y="45" width="60" height="20" fill="#e05d44"/><rect x="333" y="45" width="60" height="20" fill="#e05d44"/><rect x="536" y="45" width="60" height="20" fill="#e05d44"/><rect x="731" y="45" width="61" height="20" fill="#e05d44"/><rect y="45" width="100%" height="20" fill="url(#grad)"/><g fill="#fff" font-family="DejaVu Sans,Verdana,Geneva,sans-serif" font-size="11"><text x="136" y="60" fill="#010101" fill-opacity=".3" text-anchor="end">Alpine Linux 3.12</text><text x="136" y="59" text-anchor="end">Alpine Linux 3.12</text><text x="171.0" y="60" fill="#010101" fill-opacity=".3" text-anchor="middle">0.5.0</text><text x="171.0" y="59" text-anchor="middle">0.5.0</text><text x="328" y="60" fill="#010101" fill-opacity=".3" text-anchor="end">DPorts</text><text x="328" y="59" text-anchor="end">DPorts</text><text x="363.0" y="60" fill="#010101" fill-opacity=".3" text-anchor="middle">0.5.0</text><text x="363.0" y="59" text-anchor="middle">0.5.0</text><text x="531" y="60" fill="#010101" fill-opacity=".3" text-anchor="end">KDE neon User</text><text x="531" y="59" text-anchor="end">KDE neon User</text><text x="566.0" y="60" fill="#010101" fill-opacity=".3" text-anchor="middle">0.5.0</text><text x="566.0" y="59" text-anchor="middle">0.5.0</text><text x="726" y="60" fill="#010101" fill-opacity=".3" text-anchor="end">Parrot</text><text x="726" y="59" text-anchor="end">Parrot</text><text x="761.5" y="60" fill="#010101" fill-opacity=".3" text-anchor="middle">0.7.0</text><text x="761.5" y="59" text-anchor="middle">0.7.0</text></g><rect x="141" y="65" width="60" height="20" fill="#e05d44"/><rect x="333" y="65" width="60" height="20" fill="#4c1"/><rect x="536" y="65" width="60" height="20" fill="#e05d44"/><rect x="731" y="65" width="61" height="20" fill="#e05d44"/><rect y="65" width="100%" height="20" fill="url(#grad)"/><g fill="#fff" font-family="DejaVu Sans,Verdana,Geneva,sans-serif" font-size="11"><text x="136" y="80" fill="#010101" fill-opacity=".3" text-anchor="end">Alpine Linux 3.13</text><text x="136" y="79" text-anchor="end">Alpine Linux 3.13</text><text x="171.0" y="80" fill="#010101" fill-opacity=".3" text-anchor="middle">0.6.0</text><text x="171.0" y="79" text-anchor="middle">0.6.0</text><text x="328" y="80" fill="#010101" fill-opacity=".3" text-anchor="end">FreeBSD Ports</text><text x="328" y="79" text-anchor="end">FreeBSD Ports</text><text x="363.0" y="80" fill="#010101" fill-opacity=".3" text-anchor="middle">0.8.0</text><text x="363.0" y="79" text-anchor="middle">0.8.0</text><text x="531" y="80" fill="#010101" fill-opacity=".3" text-anchor="end">KDE neon User LTS</text><text x="531" y="79" text-anchor="end">KDE neon User LTS</text><text x="566.0" y="80" fill="#010101" fill-opacity=".3" text-anchor="middle">0.5.0</text><text x="566.0" y="79" text-anchor="middle">0.5.0</text><text x="726" y="80" fill="#010101" fill-opacity=".3" text-anchor="end">PureOS landing</text><text x="726" y="79" text-anchor="end">PureOS landing</text><text x="761.5" y="80" fill="#010101" fill-opacity=".3" text-anchor="middle">0.7.0</text><text x="761.5" y="79" text-anchor="middle">0.7.0</text></g><rect x="141" y="85" width="60" height="20" fill="#e05d44"/><rect x="333" y="85" width="60" height="20" fill="#e05d44"/><rect x="536" y="85" width="60" height="20" fill="#e05d44"/><rect x="731" y="85" width="61" height="20" fill="#e05d44"/><rect y="85" width="100%" height="20" fill="url(#grad)"/><g fill="#fff" font-family="DejaVu Sans,Verdana,Geneva,sans-serif" font-size="11"><text x="136" y="100" fill="#010101" fill-opacity=".3" text-anchor="end">Alpine Linux Edge</text><text x="136" y="99" text-anchor="end">Alpine Linux Edge</text><text x="171.0" y="100" fill="#010101" fill-opacity=".3" text-anchor="middle">0.7.0</text><text x="171.0" y="99" text-anchor="middle">0.7.0</text><text x="328" y="100" fill="#010101" fill-opacity=".3" text-anchor="end">Gentoo overlay GURU</text><text x="328" y="99" text-anchor="end">Gentoo overlay GURU</text><text x="363.0" y="100" fill="#010101" fill-opacity=".3" text-anchor="middle">0.7.0</text><text x="363.0" y="99" text-anchor="middle">0.7.0</text><text x="531" y="100" fill="#010101" fill-opacity=".3" text-anchor="end">Mageia 8</text><text x="531" y="99" text-anchor="end">Mageia 8</text><text x="566.0" y="100" fill="#010101" fill-opacity=".3" text-anchor="middle">0.6.0</text><text x="566.0" y="99" text-anchor="middle">0.6.0</text><text x="726" y="100" fill="#010101" fill-opacity=".3" text-anchor="end">Raspbian Testing</text><text x="726" y="99" text-anchor="end">Raspbian Testing</text><text x="761.5" y="100" fill="#010101" fill-opacity=".3" text-anchor="middle">0.7.0</text><text x="761.5" y="99" text-anchor="middle">0.7.0</text></g><rect x="141" y="105" width="60" height="20" fill="#4c1"/><rect x="333" y="105" width="60" height="20" fill="#e05d44"/><rect x="536" y="105" width="60" height="20" fill="#e05d44"/><rect x="731" y="105" width="61" height="20" fill="#e05d44"/><rect y="105" width="100%" height="20" fill="url(#grad)"/><g fill="#fff" font-family="DejaVu Sans,Verdana,Geneva,sans-serif" font-size="11"><text x="136" y="120" fill="#010101" fill-opacity=".3" text-anchor="end">AUR</text><text x="136" y="119" text-anchor="end">AUR</text><text x="171.0" y="120" fill="#010101" fill-opacity=".3" text-anchor="middle">0.8.0</text><text x="171.0" y="119" text-anchor="middle">0.8.0</text><text x="328" y="120" fill="#010101" fill-opacity=".3" text-anchor="end">Kali Linux Rolling</text><text x="328" y="119" text-anchor="end">Kali Linux Rolling</text><text x="363.0" y="120" fill="#010101" fill-opacity=".3" text-anchor="middle">0.7.0</text><text x="363.0" y="119" text-anchor="middle">0.7.0</text><text x="531" y="120" fill="#010101" fill-opacity=".3" text-anchor="end">Mageia Cauldron</text><text x="531" y="119" text-anchor="end">Mageia Cauldron</text><text x="566.0" y="120" fill="#010101" fill-opacity=".3" text-anchor="middle">0.6.0</text><text x="566.0" y="119" text-anchor="middle">0.6.0</text><text x="726" y="120" fill="#010101" fill-opacity=".3" text-anchor="end">Ubuntu 21.04</text><text x="726" y="119" text-anchor="end">Ubuntu 21.04</text><text x="761.5" y="120" fill="#010101" fill-opacity=".3" text-anchor="middle">0.7.0</text><text x="761.5" y="119" text-anchor="middle">0.7.0</text></g><rect x="141" y="125" width="60" height="20" fill="#e05d44"/><rect x="333" y="125" width="60" height="20" fill="#e05d44"/><rect x="536" y="125" width="60" height="20" fill="#e05d44"/><rect x="731" y="125" width="61" height="20" fill="#e05d44"/><rect y="125" width="100%" height="20" fill="url(#grad)"/><g fill="#fff" font-family="DejaVu Sans,Verdana,Geneva,sans-serif" font-size="11"><text x="136" y="140" fill="#010101" fill-opacity=".3" text-anchor="end">Debian Testing</text><text x="136" y="139" text-anchor="end">Debian Testing</text><text x="171.0" y="140" fill="#010101" fill-opacity=".3" text-anchor="middle">0.7.0</text><text x="171.0" y="139" text-anchor="middle">0.7.0</text><text x="328" y="140" fill="#010101" fill-opacity=".3" text-anchor="end">KaOS</text><text x="328" y="139" text-anchor="end">KaOS</text><text x="363.0" y="140" fill="#010101" fill-opacity=".3" text-anchor="middle">0.7.0</text><text x="363.0" y="139" text-anchor="middle">0.7.0</text><text x="531" y="140" fill="#010101" fill-opacity=".3" text-anchor="end">Manjaro Stable</text><text x="531" y="139" text-anchor="end">Manjaro Stable</text><text x="566.0" y="140" fill="#010101" fill-opacity=".3" text-anchor="middle">0.4.1</text><text x="566.0" y="139" text-anchor="middle">0.4.1</text><text x="726" y="140" fill="#010101" fill-opacity=".3" text-anchor="end">Wikidata</text><text x="726" y="139" text-anchor="end">Wikidata</text><text x="761.5" y="140" fill="#010101" fill-opacity=".3" text-anchor="middle">0.4.0-rc1</text><text x="761.5" y="139" text-anchor="middle">0.4.0-rc1</text></g><rect x="141" y="145" width="60" height="20" fill="#e05d44"/><rect x="333" y="145" width="60" height="20" fill="#4c1"/><rect x="536" y="145" width="60" height="20" fill="#e05d44"/><rect y="145" width="100%" height="20" fill="url(#grad)"/><g fill="#fff" font-family="DejaVu Sans,Verdana,Geneva,sans-serif" font-size="11"><text x="136" y="160" fill="#010101" fill-opacity=".3" text-anchor="end">Debian Unstable</text><text x="136" y="159" text-anchor="end">Debian Unstable</text><text x="171.0" y="160" fill="#010101" fill-opacity=".3" text-anchor="middle">0.7.0</text><text x="171.0" y="159" text-anchor="middle">0.7.0</text><text x="328" y="160" fill="#010101" fill-opacity=".3" text-anchor="end">KaOS Build</text><text x="328" y="159" text-anchor="end">KaOS Build</text><text x="363.0" y="160" fill="#010101" fill-opacity=".3" text-anchor="middle">0.8.0</text><text x="363.0" y="159" text-anchor="middle">0.8.0</text><text x="531" y="160" fill="#010101" fill-opacity=".3" text-anchor="end">Manjaro Testing</text><text x="531" y="159" text-anchor="end">Manjaro Testing</text><text x="566.0" y="160" fill="#010101" fill-opacity=".3" text-anchor="middle">0.4.1</text><text x="566.0" y="159" text-anchor="middle">0.4.1</text></g><rect x="141" y="165" width="60" height="20" fill="#e05d44"/><rect x="333" y="165" width="60" height="20" fill="#e05d44"/><rect x="536" y="165" width="60" height="20" fill="#e05d44"/><rect y="165" width="100%" height="20" fill="url(#grad)"/><g fill="#fff" font-family="DejaVu Sans,Verdana,Geneva,sans-serif" font-size="11"><text x="136" y="180" fill="#010101" fill-opacity=".3" text-anchor="end">Devuan 4.0 (Chimaera)</text><text x="136" y="179" text-anchor="end">Devuan 4.0 (Chimaera)</text><text x="171.0" y="180" fill="#010101" fill-opacity=".3" text-anchor="middle">0.7.0</text><text x="171.0" y="179" text-anchor="middle">0.7.0</text><text x="328" y="180" fill="#010101" fill-opacity=".3" text-anchor="end">KDE neon Dev Stable</text><text x="328" y="179" text-anchor="end">KDE neon Dev Stable</text><text x="363.0" y="180" fill="#010101" fill-opacity=".3" text-anchor="middle">0.5.0</text><text x="363.0" y="179" text-anchor="middle">0.5.0</text><text x="531" y="180" fill="#010101" fill-opacity=".3" text-anchor="end">Manjaro Unstable</text><text x="531" y="179" text-anchor="end">Manjaro Unstable</text><text x="566.0" y="180" fill="#010101" fill-opacity=".3" text-anchor="middle">0.4.1</text><text x="566.0" y="179" text-anchor="middle">0.4.1</text></g></g></svg>